<?xml version="1.0" encoding="UTF-8"?>
<svg width="140px" height="80px" viewBox="0 0 140 80" version="1.1" xmlns="http://www.w3.org/2000/svg" xmlns:xlink="http://www.w3.org/1999/xlink">
    <!-- Generator: Sketch 52.3 (67297) - http://www.bohemiancoding.com/sketch -->
    <title>ic_logotype_1</title>
    <desc>Created with Sketch.</desc>
    <defs>
        <path d="M14.4507614,0 L52.8236041,0 C60.7959867,0 67.2588832,6.43802052 67.2588832,14.379717 L67.2588832,52.620283 C67.2588832,60.5619811 60.7959867,67 52.8236041,67 L14.4507614,67 C6.47836294,67 0.0154822335,60.5619811 0.0154822335,52.620283 L0.0154822335,14.379717 C0.0154822335,6.43802052 6.47836294,0 14.4507614,0 Z" id="path-1"></path>
        <path d="M14.4507614,0 L52.8236041,0 C60.7959867,0 67.2588832,6.43802052 67.2588832,14.379717 L67.2588832,52.620283 C67.2588832,60.5619811 60.7959867,67 52.8236041,67 L14.4507614,67 C6.47836294,67 0.0154822335,60.5619811 0.0154822335,52.620283 L0.0154822335,14.379717 C0.0154822335,6.43802052 6.47836294,0 14.4507614,0 Z" id="path-3"></path>
        <linearGradient x1="46.3444499%" y1="1.82232346%" x2="46.3444499%" y2="235.079727%" id="linearGradient-5">
            <stop stop-color="#D95472" offset="0%"></stop>
            <stop stop-color="#B92137" offset="100%"></stop>
        </linearGradient>
        <path d="M14.4507614,0 L52.8236041,0 C60.7959867,0 67.2588832,6.43802052 67.2588832,14.379717 L67.2588832,52.620283 C67.2588832,60.5619811 60.7959867,67 52.8236041,67 L14.4507614,67 C6.47836294,67 0.0154822335,60.5619811 0.0154822335,52.620283 L0.0154822335,14.379717 C0.0154822335,6.43802052 6.47836294,0 14.4507614,0 Z" id="path-6"></path>
        <linearGradient x1="72.2553545%" y1="1.82232346%" x2="72.2553545%" y2="95.9416173%" id="linearGradient-8">
            <stop stop-color="#D95472" offset="0%"></stop>
            <stop stop-color="#B92137" offset="100%"></stop>
        </linearGradient>
        <path d="M14.3796478,16.6523127 L7.31307107,16.6523127 L6.34073604,19.9446833 L0,19.9446833 L7.5458915,0 L14.3111675,0 L21.857059,19.9446833 L15.3656726,19.9446833 L14.3796478,16.6523127 Z M13.0786326,12.3395828 L10.8600571,5.16984009 L8.65517132,12.3395828 L13.0786326,12.3395828 Z M23.5004442,25.4410377 L23.5004442,5.49635448 L28.7181948,5.49635448 L28.7181948,7.63231132 C29.439467,6.73438491 30.1013801,6.12670755 30.7039657,5.80926344 C31.5165292,5.38297594 32.4158154,5.16984009 33.401856,5.16984009 C35.3465419,5.16984009 36.8506821,5.90902075 37.9143242,7.38742948 C38.9779664,8.86582241 39.5097716,10.6933896 39.5097716,12.8701785 C39.5097716,15.2737087 38.9300286,17.1080708 37.7705266,18.3733278 C36.6110247,19.6385849 35.1456853,20.2711976 33.3744607,20.2711976 C32.5162437,20.2711976 31.7333598,20.1260889 31.0257931,19.8358399 C30.3182107,19.5456066 29.6859772,19.1147998 29.1290451,18.5433877 L29.1290451,25.4410377 L23.5004442,25.4410377 Z M29.08796,12.7613351 C29.08796,13.9041434 29.3299016,14.7521675 29.8137849,15.3054389 C30.297684,15.8587104 30.909375,16.1353382 31.6489055,16.1353382 C32.2971288,16.1353382 32.8403553,15.8700403 33.2786009,15.3394446 C33.7168306,14.8088646 33.9359613,13.9086785 33.9359613,12.6388863 C33.9359613,11.4688672 33.7077094,10.6094974 33.2512056,10.0607769 C32.7947176,9.51204057 32.2377855,9.23768821 31.5804251,9.23768821 C30.86829,9.23768821 30.2748572,9.51431604 29.8000952,10.0675717 C29.3253331,10.6208432 29.08796,11.5187538 29.08796,12.7613351 Z M42.2076777,25.4410377 L42.2076777,5.49635448 L47.4254283,5.49635448 L47.4254283,7.63231132 C48.1467005,6.73438491 48.8086136,6.12670755 49.4111834,5.80926344 C50.2237468,5.38297594 51.1230489,5.16984009 52.1090736,5.16984009 C54.0537595,5.16984009 55.5578997,5.90902075 56.6215419,7.38742948 C57.685184,8.86582241 58.2170051,10.6933896 58.2170051,12.8701785 C58.2170051,15.2737087 57.6372621,17.1080708 56.4777602,18.3733278 C55.3182424,19.6385849 53.8529029,20.2711976 52.0816942,20.2711976 C51.2234772,20.2711976 50.4405933,20.1260889 49.7330108,19.8358399 C49.0254442,19.5456066 48.3931948,19.1147998 47.8362786,18.5433877 L47.8362786,25.4410377 L42.2076777,25.4410377 Z M47.7951935,12.7613351 C47.7951935,13.9041434 48.0371352,14.7521675 48.5210184,15.3054389 C49.0049016,15.8587104 49.6166085,16.1353382 50.356139,16.1353382 C51.0043623,16.1353382 51.5475888,15.8700403 51.9858344,15.3394446 C52.4240641,14.8088646 52.6431789,13.9086785 52.6431789,12.6388863 C52.6431789,11.4688672 52.4149429,10.6094974 51.9584391,10.0607769 C51.5019353,9.51204057 50.945019,9.23768821 50.2876586,9.23768821 C49.5755235,9.23768821 48.9820749,9.51431604 48.5073287,10.0675717 C48.0325666,10.6208432 47.7951935,11.5187538 47.7951935,12.7613351 Z" id="path-9"></path>
        <path d="M0,0 L9.19950032,0 C11.0129806,0 12.4778696,0.24589316 13.59421,0.737695283 C14.7105489,1.22949741 15.633217,1.93532028 16.3622621,2.85516392 C17.0912912,3.77502335 17.6198445,4.84512712 17.9479061,6.06552264 C18.2759835,7.28591816 18.4400063,8.57916038 18.4400063,9.9452809 C18.4400063,12.08552 18.1962405,13.7453344 17.7086929,14.9247399 C17.2211453,16.1041611 16.5445273,17.0923005 15.6787912,17.8892054 C14.8130552,18.6861104 13.8835501,19.2166113 12.8902348,19.4807241 C11.5324016,19.8450208 10.3021685,20.0271691 9.19950032,20.0271691 L0,20.0271691 L0,0 Z M6.1922335,4.53548915 L6.1922335,15.4780113 L7.7095368,15.4780113 C9.00357868,15.4780113 9.92397525,15.3345776 10.4707535,15.0476943 C11.0175317,14.7608111 11.4458344,14.2599071 11.7556758,13.5449665 C12.0655171,12.8300417 12.2204346,11.6711314 12.2204346,10.0682196 C12.2204346,7.9461842 11.8741466,6.49357995 11.1815609,5.71034363 C10.4889753,4.92709151 9.34075825,4.53548915 7.736875,4.53548915 L6.1922335,4.53548915 Z M19.7112627,5.51907759 L25.5891022,5.51907759 L28.5826935,15.1774752 L31.3575825,5.51907759 L36.839007,5.51907759 L31.0842005,21.0244262 C30.4280615,22.7912667 29.7582646,23.984325 29.0747938,24.6036325 C28.1088198,25.4779509 26.6370876,25.9150943 24.6595812,25.9150943 C23.8576459,25.9150943 22.61829,25.8058085 20.9415133,25.587221 L20.5040926,21.7074785 C21.3060279,21.9624894 22.1990799,22.0899948 23.1832805,22.0899948 C23.8394194,22.0899948 24.3702411,21.9397189 24.7757773,21.639167 C25.1812976,21.3386309 25.5253014,20.8012877 25.8078046,20.0271691 L19.7112627,5.51907759 Z M38.424651,5.51907759 L43.6053617,5.51907759 L43.6053617,7.88245519 C44.3799651,6.91705472 45.163658,6.22717594 45.9564879,5.81280307 C46.7493179,5.39841439 47.715276,5.19122005 48.854394,5.19122005 C50.3944956,5.19122005 51.5996669,5.64885849 52.4699556,6.56415118 C53.3402443,7.47945967 53.7753807,8.89336509 53.7753807,10.8059307 L53.7753807,20.0271691 L48.1845971,20.0271691 L48.1845971,12.0490809 C48.1845971,11.1383392 48.0160057,10.4940014 47.6788388,10.1160361 C47.3416561,9.73808656 46.8677824,9.54911179 46.2572176,9.54911179 C45.5828522,9.54911179 45.0360882,9.80410684 44.616894,10.3141285 C44.1976999,10.8241344 43.9881028,11.7394271 43.9881028,13.0600066 L43.9881028,20.0271691 L38.424651,20.0271691 L38.424651,5.51907759 Z" id="path-11"></path>
    </defs>
    <g id="ic_logotype_1" stroke="none" stroke-width="1" fill="none" fill-rule="evenodd">
        <g id="dynapp_logo-copy" transform="translate(7.000000, 7.000000)">
            <g id="Group-3" transform="translate(57.741117, 0.000000)">
                <mask id="mask-2" fill="white">
                    <use xlink:href="#path-1"></use>
                </mask>
                <g id="Clip-2"></g>
                <polygon id="Fill-1" fill="#000000" mask="url(#mask-2)" points="-0.777664975 67.7900943 68.0520305 67.7900943 68.0520305 -0.79009434 -0.777664975 -0.79009434"></polygon>
            </g>
            <g id="Group-10" transform="translate(57.741117, 0.000000)">
                <g id="Group-6">
                    <mask id="mask-4" fill="white">
                        <use xlink:href="#path-3"></use>
                    </mask>
                    <g id="Clip-5"></g>
                    <polygon id="Fill-4" fill="url(#linearGradient-5)" mask="url(#mask-4)" points="-60.1205584 68.1061321 69.6383249 68.1061321 69.6383249 -1.26415094 -60.1205584 -1.26415094"></polygon>
                </g>
                <g id="Group-9">
                    <mask id="mask-7" fill="white">
                        <use xlink:href="#path-6"></use>
                    </mask>
                    <g id="Clip-8"></g>
                    <polygon id="Fill-7" fill="url(#linearGradient-8)" mask="url(#mask-7)" points="-60.1205584 68.1061321 69.6383249 68.1061321 69.6383249 -1.26415094 -60.1205584 -1.26415094"></polygon>
                </g>
            </g>
            <g id="Group-13" transform="translate(62.024112, 21.174528)">
                <mask id="mask-10" fill="white">
                    <use xlink:href="#path-9"></use>
                </mask>
                <g id="Clip-12"></g>
                <polygon id="Fill-11" fill="#FFFFFF" mask="url(#mask-10)" points="-0.793147208 26.2311321 59.0101523 26.2311321 59.0101523 -0.79009434 -0.793147208 -0.79009434"></polygon>
            </g>
            <g id="Group-16" transform="translate(0.000000, 21.174528)">
                <mask id="mask-12" fill="white">
                    <use xlink:href="#path-11"></use>
                </mask>
                <g id="Clip-15"></g>
                <polygon id="Fill-14" fill="#BF0C3A" mask="url(#mask-12)" points="-0.793147208 26.7051887 54.5685279 26.7051887 54.5685279 -0.79009434 -0.793147208 -0.79009434"></polygon>
            </g>
        </g>
    </g>
</svg>